<svg width="378" height="56" viewBox="0 0 378 56" fill="none" xmlns="http://www.w3.org/2000/svg">
<path d="M333.278 17.8977C332.299 16.0976 330.884 14.7347 329.03 13.809C327.228 12.8318 325.092 12.3432 322.62 12.3432C318.347 12.3432 314.924 13.7576 312.349 16.5862C309.775 19.3634 308.488 23.0921 308.488 27.7723C308.488 32.761 309.827 36.6697 312.504 39.4983C315.232 42.2756 318.965 43.6642 323.702 43.6642C326.945 43.6642 329.674 42.8413 331.888 41.1955C334.153 39.5498 335.8 37.184 336.83 34.0982H320.072V24.3779H348.8V36.644C347.822 39.9355 346.149 42.9956 343.78 45.8242C341.464 48.6529 338.503 50.9415 334.899 52.6902C331.296 54.4388 327.228 55.3131 322.698 55.3131C317.343 55.3131 312.555 54.1559 308.334 51.8416C304.163 49.4758 300.894 46.21 298.526 42.0441C296.209 37.8783 295.051 33.121 295.051 27.7723C295.051 22.4235 296.209 17.6662 298.526 13.5004C300.894 9.28314 304.163 6.01732 308.334 3.70297C312.504 1.33718 317.266 0.154289 322.62 0.154289C329.107 0.154289 334.565 1.72291 338.992 4.86014C343.471 7.99738 346.432 12.3432 347.873 17.8977H333.278Z" fill="white"/>
<path d="M262.219 55.4674C257.122 55.4674 252.437 54.2845 248.164 51.9187C243.943 49.5529 240.57 46.2614 238.048 42.0441C235.576 37.7754 234.341 32.9924 234.341 27.6951C234.341 22.3978 235.576 17.6405 238.048 13.4233C240.57 9.20599 243.943 5.91446 248.164 3.54868C252.437 1.18289 257.122 0 262.219 0C267.316 0 271.976 1.18289 276.197 3.54868C280.47 5.91446 283.817 9.20599 286.237 13.4233C288.708 17.6405 289.944 22.3978 289.944 27.6951C289.944 32.9924 288.708 37.7754 286.237 42.0441C283.765 46.2614 280.419 49.5529 276.197 51.9187C271.976 54.2845 267.316 55.4674 262.219 55.4674ZM262.219 43.4327C266.544 43.4327 269.993 41.9927 272.568 39.1126C275.193 36.2325 276.506 32.4267 276.506 27.6951C276.506 22.9121 275.193 19.1063 272.568 16.2776C269.993 13.3975 266.544 11.9575 262.219 11.9575C257.843 11.9575 254.342 13.3718 251.717 16.2005C249.142 19.0291 247.855 22.8607 247.855 27.6951C247.855 32.4781 249.142 36.3097 251.717 39.1898C254.342 42.0184 257.843 43.4327 262.219 43.4327Z" fill="white"/>
<path d="M212.983 44.7442H230.282V54.9274H199.777V0.771454H212.983V44.7442Z" fill="white"/>
<path d="M171.202 11.3403V22.295H188.887V32.4781H171.202V44.3585H191.204V54.9274H157.997V0.771454H191.204V11.3403H171.202Z" fill="white"/>
<path d="M75.9808 45.3614H55.7476L52.5041 54.9274H38.6806L58.296 0.771454H73.5868L93.2022 54.9274H79.2243L75.9808 45.3614ZM72.5829 35.1782L65.8642 15.3519L59.2227 35.1782H72.5829Z" fill="white"/>
<path d="M35.2923 0.771454V11.3403H13.2057V22.7578H29.732V33.0181H13.2057V54.9274H0V0.771454H35.2923Z" fill="white"/>
<path d="M124.193 0.15416C130.629 0.15416 136.138 1.85157 140.72 5.24596C144.552 8.08509 147.321 11.7882 149.028 16.3544H118.193C117.008 16.3545 115.993 17.0684 115.564 18.0956L111.251 28.1551C111.122 28.4832 111.051 28.8263 111.051 29.1971V32.0506C111.051 32.8074 111.352 33.534 111.888 34.0692C112.423 34.604 113.15 34.9039 113.907 34.9042H122.921L121.564 41.4256C121.536 41.5682 121.522 41.7113 121.521 41.868C121.521 42.4671 121.764 42.9955 122.149 43.3807L123.664 44.8934L133.063 35.4901C133.592 34.9764 133.906 34.2622 133.906 33.4774H150.604C150.469 34.231 150.304 34.9894 150.1 35.746L149.91 36.4129C148.366 42.2758 145.302 46.9044 140.72 50.2987C136.138 53.6416 130.629 55.3133 124.193 55.3133C118.942 55.3133 114.232 54.1559 110.062 51.8417C105.943 49.4759 102.725 46.2096 100.408 42.0438C98.0915 37.878 96.9326 33.121 96.9326 27.7723C96.9326 22.4237 98.0915 17.6666 100.408 13.5008C102.725 9.28357 105.943 6.01734 110.062 3.70299C114.232 1.33733 118.942 0.154172 124.193 0.15416Z" fill="white"/>
<path d="M364.177 20.4949H377.614V28.2094H353.751V20.8035L363.173 15.0947C366.056 13.2947 367.497 11.4432 367.497 9.54029C367.497 8.87169 367.317 8.35739 366.957 7.99738C366.596 7.58594 366.133 7.38022 365.567 7.38022C364.177 7.38022 363.404 8.30596 363.25 10.1574H353.365C353.519 7.1745 354.755 4.783 357.072 2.98294C359.44 1.18289 362.606 0.28286 366.571 0.28286C370.277 0.28286 373.109 1.13146 375.065 2.82865C377.022 4.52585 378 6.53162 378 8.84598C378 10.6975 377.305 12.3175 375.915 13.7061C374.525 15.0947 372.182 16.5862 368.887 18.1805L364.177 20.4949Z" fill="url(#paint0_linear_10_57)"/>
<defs>
<linearGradient id="paint0_linear_10_57" x1="350.735" y1="-4.82157" x2="381.266" y2="31.3718" gradientUnits="userSpaceOnUse">
<stop stop-color="#4717F7"/>
<stop offset="1" stop-color="#9920AB"/>
</linearGradient>
</defs>
</svg>
